<svg version="1.2" baseProfile="tiny-ps" xmlns="http://www.w3.org/2000/svg" viewBox="0 0 39 35" width="39" height="35">
	<title>Core Features</title>
	<style>
		tspan { white-space:pre }
		.shp0 { fill: #00cff1 } 
	</style>
	<g id="Core Features">
		<g id="Text">
			<g id="Premium Quality">
				<path id="Icon" class="shp0" d="M38.97 11.22C38.96 11.25 38.95 11.27 38.94 11.3C38.93 11.31 38.93 11.32 38.92 11.33C38.91 11.35 38.9 11.37 38.89 11.38C38.88 11.4 38.87 11.41 38.86 11.42L20.01 34.76C20 34.77 19.98 34.77 19.98 34.78C19.94 34.82 19.89 34.86 19.84 34.89C19.81 34.91 19.79 34.93 19.75 34.94C19.74 34.95 19.73 34.96 19.72 34.96C19.65 34.99 19.57 35 19.5 35C19.41 35 19.33 34.98 19.25 34.94C19.23 34.93 19.21 34.93 19.19 34.91C19.12 34.88 19.05 34.83 19 34.76C19 34.76 19 34.76 18.99 34.76L18.99 34.75C18.99 34.75 18.99 34.75 18.99 34.75L0.14 11.42C0.13 11.41 0.12 11.4 0.12 11.38C0.1 11.37 0.09 11.35 0.08 11.33C0.07 11.32 0.07 11.31 0.06 11.3C0.05 11.27 0.04 11.25 0.03 11.22C0.02 11.19 0.02 11.16 0.01 11.13C0.01 11.1 0 11.08 0 11.05C0 11.02 0 10.99 0.01 10.96C0.01 10.93 0.01 10.9 0.02 10.88C0.03 10.84 0.04 10.81 0.05 10.78C0.05 10.77 0.05 10.75 0.06 10.74C0.07 10.73 0.08 10.72 0.08 10.71C0.09 10.7 0.09 10.68 0.1 10.67L6.6 0.3C6.63 0.26 6.66 0.21 6.7 0.18C6.71 0.17 6.71 0.17 6.72 0.17C6.77 0.12 6.83 0.08 6.9 0.05C6.91 0.05 6.92 0.04 6.93 0.04C6.93 0.04 6.94 0.04 6.95 0.04C7.01 0.01 7.08 0 7.15 0L31.85 0C31.92 0 31.99 0.01 32.06 0.04C32.06 0.04 32.07 0.04 32.08 0.04C32.09 0.04 32.1 0.05 32.1 0.05C32.18 0.08 32.24 0.12 32.3 0.18C32.3 0.18 32.3 0.18 32.3 0.18C32.34 0.21 32.37 0.26 32.4 0.3L38.91 10.67C38.91 10.69 38.91 10.7 38.92 10.71C38.93 10.72 38.94 10.73 38.94 10.74C38.95 10.75 38.95 10.77 38.95 10.79C38.97 10.81 38.98 10.85 38.98 10.88C38.99 10.9 38.99 10.93 39 10.96C39 10.99 39 11.02 39 11.05C39 11.08 38.99 11.1 38.99 11.13C38.98 11.16 38.98 11.19 38.97 11.22ZM20.87 1.3L30.92 1.3L27.76 9.75L20.87 1.3ZM26.59 10.37L12.41 10.37L19.5 1.68L26.59 10.37ZM11.2 9.81L8.08 1.3L18.13 1.3L11.2 9.81ZM27.04 11.67L19.39 32.15L11.88 11.67L27.04 11.67ZM32 2.11L37.18 10.37L28.91 10.37L32 2.11ZM6.99 2.12L10.02 10.37L1.82 10.37L6.99 2.12ZM10.49 11.67L17.54 30.89L2.01 11.67L10.49 11.67ZM21.06 31.39L28.43 11.67L36.99 11.67L21.06 31.39Z" />
			</g>
		</g>
	</g>
</svg>