<svg version="1.2" baseProfile="tiny-ps" xmlns="http://www.w3.org/2000/svg" viewBox="0 0 39 35" width="39" height="35">
	<title>Core Features</title>
	<style>
		tspan { white-space:pre }
		.shp0 { fill: #00cff1 } 
	</style>
	<g id="Core Features">
		<g id="Text">
			<g id="Retina Ready">
				<path id="Icon" class="shp0" d="M39 8.23L39 35L0 35L0 8.23L39 8.23ZM37.61 33.63L1.39 33.63L1.39 9.61L37.61 9.61L37.61 33.63ZM1.39 6.18C1.39 5.8 1.7 5.49 2.09 5.49L36.91 5.49C37.3 5.49 37.61 5.8 37.61 6.18C37.61 6.55 37.3 6.86 36.91 6.86L2.09 6.86C1.7 6.86 1.39 6.55 1.39 6.18ZM3.48 3.43C3.48 3.05 3.79 2.74 4.18 2.74L34.82 2.74C35.21 2.74 35.52 3.05 35.52 3.43C35.52 3.81 35.21 4.12 34.82 4.12L4.18 4.12C3.79 4.12 3.48 3.81 3.48 3.43ZM5.57 0.69C5.57 0.31 5.88 0 6.27 0L32.73 0C33.12 0 33.43 0.31 33.43 0.69C33.43 1.06 33.12 1.37 32.73 1.37L6.27 1.37C5.88 1.37 5.57 1.06 5.57 0.69Z" />
			</g>
		</g>
	</g>
</svg>