<svg version="1.2" baseProfile="tiny-ps" xmlns="http://www.w3.org/2000/svg" viewBox="0 0 86 85" width="86" height="85">
	<title>Quick Overview</title>
	<style>
		tspan { white-space:pre }
		.shp0 { fill: #ff45c4 } 
		.shp1 { fill: #ffffff } 
	</style>
	<g id="Quick Overview">
		<g id="Easy to use">
			<g id="Icon">
				<path id="Icon Bg" class="shp0" d="M43.5 0C66.97 0 86 19.03 86 42.5C86 65.97 66.97 85 43.5 85C20.03 85 1 65.97 1 42.5C1 19.03 20.03 0 43.5 0Z" />
				<path id="Setting" class="shp1" d="M62.44 50.74C62.4 50.83 62.36 50.93 62.32 51.02C60.34 55.55 56.76 59.18 52.23 61.22C52.02 61.32 51.81 61.41 51.59 61.5C51.47 61.55 51.35 61.59 51.24 61.64C50.96 61.75 50.68 61.85 50.4 61.94C50.35 61.96 50.3 61.98 50.25 62C50.24 62 50.24 62 50.23 62C48.27 62.65 46.17 63 44 63C41.92 63 39.91 62.68 38.02 62.09C38.01 62.08 38 62.08 38 62.08C37.87 62.04 37.75 61.99 37.63 61.95C37.42 61.88 37.22 61.82 37.03 61.74C36.82 61.67 36.62 61.58 36.42 61.5C36.3 61.45 36.19 61.41 36.07 61.36C35.83 61.25 35.58 61.14 35.34 61.03C35.34 61.02 35.33 61.02 35.33 61.02C31.53 59.2 28.44 56.24 26.45 52.57C26.42 52.54 26.4 52.5 26.38 52.46C26.26 52.22 26.13 51.98 26.01 51.73C25.94 51.59 25.88 51.45 25.82 51.32C25.74 51.14 25.65 50.97 25.58 50.79C25.43 50.44 25.3 50.1 25.17 49.75C25.15 49.68 25.13 49.61 25.11 49.55C25 49.23 24.89 48.91 24.8 48.59C24.79 48.55 24.78 48.52 24.77 48.49C24.77 48.48 24.77 48.48 24.77 48.47C24.27 46.73 24 44.9 24 43C24 31.97 32.97 23 44 23C55.03 23 64 31.97 64 43C64 44.8 63.76 46.54 63.31 48.2C63.31 48.2 63.31 48.21 63.31 48.21C63.3 48.26 63.28 48.31 63.27 48.35C63.18 48.65 63.09 48.95 63 49.24C62.96 49.36 62.92 49.49 62.87 49.61C62.8 49.83 62.72 50.04 62.63 50.26C62.57 50.42 62.51 50.58 62.44 50.74ZM27.11 50.94C27.03 50.76 26.95 50.59 26.87 50.42C26.79 50.23 26.71 50.03 26.64 49.84C26.6 49.73 26.55 49.63 26.52 49.53C26.4 49.21 26.28 48.88 26.18 48.55C26.29 48.46 26.4 48.39 26.51 48.31L28.61 51.95C28.38 52.14 28.18 52.35 27.99 52.58C27.72 52.14 27.48 51.69 27.25 51.22C27.2 51.13 27.15 51.03 27.11 50.94ZM36.53 48.57L33.71 51.7C32.56 50.95 31.09 50.77 29.77 51.28L27.66 47.64C30.61 46.23 34.04 46.66 36.53 48.57ZM38.72 51.07C39.49 52.4 39.86 53.87 39.86 55.33L39.86 55.33C39.86 55.33 39.86 55.34 39.86 55.34C39.86 56.3 39.69 57.26 39.37 58.18L35.52 56.47C35.82 55.39 35.7 54.2 35.1 53.16C34.98 52.96 34.84 52.77 34.7 52.59L37.51 49.47C37.97 49.94 38.38 50.47 38.72 51.07ZM37.72 60.58C37.61 60.54 37.49 60.49 37.37 60.45C36.19 59.99 35.06 59.42 34 58.75C34.39 58.45 34.72 58.09 34.98 57.69L38.82 59.4C38.58 59.84 38.31 60.26 37.98 60.66C37.9 60.64 37.81 60.61 37.72 60.58ZM29.83 52.72C31.26 51.89 33.11 52.39 33.94 53.83C34.77 55.26 34.28 57.11 32.84 57.94C32.84 57.94 32.83 57.94 32.83 57.95C32.77 57.9 32.72 57.86 32.66 57.81C32.4 57.62 32.16 57.41 31.91 57.21C31.78 57.1 31.65 56.99 31.53 56.87C31.27 56.65 31.03 56.41 30.78 56.17C30.64 56.02 30.5 55.87 30.36 55.72C30.22 55.58 30.09 55.43 29.96 55.29C29.75 55.04 29.54 54.79 29.34 54.54C29.22 54.38 29.09 54.21 28.96 54.05C28.9 53.95 28.83 53.86 28.77 53.77C29.03 53.33 29.39 52.98 29.83 52.72ZM39.34 61.08C39.73 60.54 40.06 59.97 40.32 59.37C40.33 59.36 40.34 59.36 40.34 59.34C40.35 59.34 40.34 59.33 40.35 59.33C40.82 58.27 41.09 57.14 41.17 56L42 56C42.37 56 42.67 55.7 42.67 55.33C42.67 54.96 42.37 54.67 42 54.67L41.17 54.67C41.09 53.41 40.76 52.16 40.18 50.99L40.9 50.58C41.22 50.39 41.33 49.98 41.15 49.67C40.96 49.35 40.55 49.24 40.24 49.42L39.51 49.84C39.05 49.16 38.53 48.55 37.94 48.02C37.94 48.02 37.94 48.01 37.93 48C37.92 48 37.92 48 37.91 47.99C37.57 47.68 37.2 47.41 36.82 47.16L37.24 46.43C37.43 46.11 37.32 45.7 37 45.52C36.68 45.33 36.27 45.44 36.09 45.76L35.67 46.48C34.52 45.92 33.28 45.59 32 45.5L32 44.67C32 44.3 31.7 44 31.33 44C30.97 44 30.67 44.3 30.67 44.67L30.67 45.51C29.21 45.6 27.75 46.01 26.4 46.79C26.2 46.91 26.01 47.04 25.81 47.17C25.5 45.83 25.33 44.43 25.33 43C25.33 32.71 33.71 24.33 44 24.33C54.29 24.33 62.67 32.71 62.67 43C62.67 44.33 62.52 45.64 62.26 46.89C60.78 45.87 59.07 45.29 57.33 45.17L57.33 44.33C57.33 43.96 57.03 43.67 56.67 43.67C56.3 43.67 56 43.96 56 44.33L56 45.17C54.74 45.25 53.49 45.57 52.33 46.15L51.91 45.43C51.73 45.11 51.32 45 51 45.18C50.68 45.37 50.57 45.78 50.76 46.09L51.18 46.82C50.08 47.55 49.18 48.47 48.49 49.51L47.76 49.09C47.44 48.9 47.04 49.01 46.85 49.33C46.67 49.65 46.78 50.06 47.1 50.24L47.82 50.66C47.25 51.81 46.92 53.06 46.83 54.33L46 54.33C45.63 54.33 45.33 54.63 45.33 55C45.33 55.37 45.63 55.66 46 55.66L46.84 55.66C46.87 56.12 46.93 56.57 47.02 57.02C47.02 57.03 47.02 57.04 47.02 57.05C47.02 57.06 47.03 57.06 47.03 57.07C47.24 58.05 47.6 59.01 48.13 59.93C48.34 60.3 48.59 60.66 48.87 61.02C47.32 61.44 45.68 61.67 44 61.67C42.39 61.67 40.83 61.46 39.34 61.08ZM61.87 48.37C61.8 48.62 61.72 48.87 61.63 49.11C61.6 49.21 61.57 49.3 61.54 49.4C61.46 49.62 61.37 49.84 61.28 50.06C61.14 50.39 61 50.71 60.85 51.03C60.84 51.05 60.83 51.07 60.82 51.1C60.6 51.54 60.37 51.96 60.13 52.38C58.96 50.84 56.9 50.26 55.1 50.95L53 47.32C54.16 46.77 55.41 46.48 56.65 46.48C58.52 46.48 60.37 47.09 61.9 48.28C61.89 48.31 61.88 48.34 61.87 48.37ZM52.79 59.46C52.57 59.58 52.35 59.69 52.13 59.8C51.96 59.88 51.78 59.96 51.6 60.04C51.49 60.09 51.38 60.15 51.26 60.2C50.94 60.33 50.61 60.46 50.29 60.57C50.27 60.58 50.25 60.58 50.24 60.59C49.87 60.17 49.55 59.72 49.28 59.26C48.94 58.67 48.68 58.05 48.5 57.42L52.61 56.54C52.69 56.76 52.79 56.97 52.91 57.17C53.24 57.75 53.71 58.22 54.25 58.59C53.83 58.87 53.39 59.14 52.93 59.38C52.89 59.41 52.84 59.44 52.79 59.46ZM51.84 47.98L53.95 51.62C52.84 52.51 52.26 53.87 52.33 55.24L48.21 56.11C47.81 53.01 49.15 49.83 51.84 47.98ZM56.66 51.99C57.7 51.99 58.72 52.53 59.27 53.49C59.3 53.53 59.32 53.57 59.34 53.62C59.27 53.72 59.2 53.82 59.13 53.92C59 54.09 58.87 54.26 58.74 54.43C58.55 54.68 58.35 54.92 58.14 55.16C58.02 55.31 57.89 55.45 57.76 55.6C57.6 55.77 57.44 55.94 57.27 56.11C57.17 56.21 57.07 56.31 56.97 56.41C56.68 56.68 56.39 56.95 56.09 57.2C55.98 57.3 55.87 57.39 55.75 57.49C55.65 57.57 55.54 57.66 55.43 57.74C54.86 57.48 54.38 57.05 54.06 56.5C53.23 55.07 53.72 53.22 55.16 52.39C55.63 52.12 56.15 51.99 56.66 51.99ZM47 47.53C46.07 48.06 45.05 48.33 44.01 48.33C43.49 48.33 42.96 48.27 42.45 48.13C40.9 47.71 39.6 46.72 38.8 45.33C38 43.94 37.79 42.33 38.2 40.78C38.42 39.97 38.8 39.23 39.31 38.59L34.27 33.54C32.12 35.93 30.87 39.08 30.88 42.39C30.88 42.75 30.59 43.05 30.22 43.06C30.22 43.06 30.22 43.06 30.22 43.06C29.85 43.06 29.55 42.76 29.55 42.39C29.55 41.32 29.67 40.27 29.89 39.24L28.37 38.84C28.02 38.74 27.81 38.37 27.9 38.02C28 37.66 28.36 37.45 28.72 37.55L30.24 37.95C30.49 37.18 30.8 36.42 31.17 35.7L29.81 34.91C29.49 34.73 29.38 34.32 29.57 34C29.75 33.68 30.16 33.57 30.48 33.76L31.84 34.54C32.28 33.85 32.77 33.21 33.32 32.6L32.21 31.49C31.95 31.23 31.95 30.81 32.21 30.55C32.48 30.29 32.9 30.29 33.16 30.55L34.26 31.65C34.86 31.11 35.51 30.61 36.2 30.16L35.42 28.81C35.24 28.49 35.35 28.08 35.67 27.9C35.99 27.71 36.39 27.82 36.58 28.14L37.36 29.51C38.1 29.13 38.85 28.8 39.62 28.56L39.21 27.05C39.12 26.69 39.33 26.33 39.69 26.23C40.04 26.14 40.41 26.35 40.5 26.71L40.91 28.21C41.71 28.03 42.52 27.94 43.33 27.9L43.33 26.33C43.33 25.96 43.63 25.67 44 25.67C44.37 25.67 44.67 25.96 44.67 26.33L44.67 27.9C45.48 27.94 46.29 28.06 47.09 28.23L47.5 26.71C47.59 26.35 47.96 26.14 48.31 26.23C48.67 26.33 48.88 26.69 48.78 27.05L48.38 28.58C49.15 28.82 49.91 29.13 50.64 29.5L51.42 28.14C51.61 27.82 52.01 27.71 52.33 27.9C52.65 28.08 52.76 28.49 52.58 28.81L51.79 30.17C52.48 30.6 53.13 31.09 53.74 31.65L54.84 30.55C55.1 30.29 55.52 30.29 55.79 30.55C56.05 30.81 56.05 31.23 55.79 31.49L54.68 32.6C55.22 33.19 55.71 33.84 56.16 34.54L57.52 33.75C57.84 33.57 58.25 33.68 58.43 34C58.62 34.32 58.51 34.72 58.19 34.91L56.84 35.69C57.21 36.42 57.52 37.17 57.77 37.95L59.28 37.55C59.64 37.45 60 37.66 60.1 38.02C60.19 38.37 59.98 38.74 59.63 38.84L58.11 39.24C58.34 40.27 58.45 41.33 58.45 42.39C58.45 42.76 58.15 43.06 57.78 43.06C57.78 43.06 57.78 43.06 57.78 43.06C57.41 43.05 57.11 42.75 57.12 42.38C57.13 40.06 56.52 37.77 55.37 35.77C54.9 34.95 54.35 34.21 53.74 33.54L48.68 38.59C48.87 38.83 49.04 39.07 49.2 39.33C50 40.72 50.21 42.34 49.79 43.89C49.38 45.43 48.39 46.73 47 47.53ZM41 37.14C40.74 37.29 40.49 37.46 40.26 37.65L35.21 32.6C35.88 31.98 36.63 31.43 37.44 30.96C42.49 28.05 48.68 28.89 52.79 32.6L47.74 37.65C47.11 37.14 46.37 36.76 45.55 36.54C44 36.12 42.39 36.34 41 37.14ZM42.79 46.84C41.59 46.52 40.58 45.74 39.96 44.66C39.34 43.59 39.17 42.33 39.49 41.12C39.82 39.92 40.59 38.91 41.67 38.29C42.39 37.88 43.18 37.66 43.99 37.66C44.4 37.66 44.81 37.72 45.21 37.83C46.41 38.15 47.42 38.92 48.04 40C48.66 41.08 48.83 42.34 48.51 43.54C48.18 44.74 47.41 45.75 46.33 46.37C45.25 47 44 47.16 42.79 46.84Z" />
			</g>
		</g>
	</g>
</svg>