<svg version="1.2" baseProfile="tiny-ps" xmlns="http://www.w3.org/2000/svg" viewBox="0 0 33 35" width="33" height="35">
	<title>Core Features</title>
	<style>
		tspan { white-space:pre }
		.shp0 { fill: #00cff1 } 
	</style>
	<g id="Core Features">
		<g id="Text">
			<g id="Top Class Security">
				<path id="Icon" class="shp0" d="M16.98 15.85C17.05 16.08 18.64 21.72 18.2 34.43C18.18 34.75 17.92 35 17.6 35C17.6 35 17.59 35 17.58 35C17.25 34.99 17 34.71 17.01 34.39C17.44 21.87 15.86 16.24 15.84 16.18C15.75 15.87 15.93 15.54 16.25 15.45C16.56 15.36 16.89 15.54 16.98 15.85ZM33 18.92C33.03 19.25 32.79 19.54 32.47 19.57C32.45 19.57 32.43 19.58 32.41 19.58C32.11 19.58 31.85 19.35 31.82 19.04C31.59 16.73 31.07 12.52 30.1 10.24C27.77 4.74 22.4 1.19 16.41 1.19C14.44 1.19 12.51 1.57 10.69 2.33C9.67 2.76 8.7 3.26 7.82 3.83C7.55 4.01 7.18 3.93 7 3.66C6.82 3.39 6.9 3.02 7.17 2.84C8.11 2.23 9.14 1.69 10.23 1.24C12.2 0.42 14.28 0 16.41 0C22.87 0 28.68 3.84 31.19 9.78C32.17 12.08 32.72 16.03 33 18.92ZM2.32 23.56C2.41 23.87 2.23 24.2 1.92 24.3C1.86 24.31 1.8 24.32 1.75 24.32C1.49 24.32 1.25 24.16 1.18 23.9C-1.81 13.9 1.38 8.06 4.58 4.92C4.81 4.69 5.19 4.69 5.42 4.92C5.65 5.15 5.64 5.53 5.41 5.76C1.16 9.94 0.09 16.1 2.32 23.56ZM28.42 12.49C29.73 16.34 29.74 22.74 29.59 28.49C29.58 28.82 29.3 29.06 28.98 29.07C28.65 29.06 28.39 28.79 28.4 28.46C28.55 22.82 28.54 16.55 27.29 12.87C25.85 8.62 21.05 4.9 16.83 4.75C15.19 4.7 13.58 4.98 12.07 5.61C6.79 7.81 3.99 13.6 5.54 19.08C5.73 19.72 5.91 20.41 6.02 21.12C6.24 22.66 6.25 25.24 6.25 29.66C6.25 29.99 5.99 30.25 5.66 30.25C5.33 30.25 5.07 29.99 5.07 29.66C5.07 25.42 5.05 22.74 4.84 21.29C4.75 20.65 4.57 20.01 4.4 19.4C2.68 13.34 5.78 6.95 11.61 4.52C13.28 3.82 15.05 3.5 16.87 3.57C21.62 3.74 26.8 7.74 28.42 12.49ZM24.62 12.55C26.16 16.18 26.27 21.54 25.92 31.46C25.91 31.78 25.65 32.03 25.33 32.03C25.32 32.03 25.31 32.03 25.31 32.03C24.98 32.02 24.72 31.75 24.73 31.42C25.07 21.88 24.97 16.42 23.53 13.01C22.32 10.15 19.52 8.3 16.41 8.3C15.85 8.3 15.3 8.37 14.76 8.48C14.43 8.55 14.12 8.35 14.05 8.03C13.98 7.71 14.18 7.4 14.5 7.33C15.12 7.19 15.77 7.12 16.41 7.12C20 7.12 23.23 9.25 24.62 12.55ZM9.15 18.67C9.2 18.85 10.42 23.25 10.42 30.25C10.42 30.58 10.15 30.85 9.82 30.85C9.49 30.85 9.23 30.58 9.23 30.25C9.23 23.41 8.02 19.02 8.01 18.98C6.92 14.99 8.25 10.87 11.32 8.72C11.58 8.53 11.96 8.6 12.14 8.86C12.33 9.13 12.27 9.5 12 9.69C9.35 11.55 8.2 15.16 9.15 18.67ZM22.33 30.24C22.36 31.28 22.38 32.46 22.35 33.24C22.34 33.56 22.08 33.81 21.76 33.81C21.75 33.81 21.75 33.81 21.74 33.81C21.41 33.8 21.16 33.53 21.17 33.2C21.19 32.45 21.17 31.29 21.14 30.27C21.13 29.57 21.11 28.92 21.12 28.47C21.12 28.14 21.38 27.88 21.71 27.88C21.71 27.88 21.71 27.88 21.71 27.88C22.04 27.88 22.31 28.15 22.3 28.48C22.3 28.92 22.32 29.55 22.33 30.24ZM20.79 14.17C21.98 16.97 22.33 21.87 22.41 25.5C22.42 25.82 22.16 26.09 21.83 26.1C21.82 26.1 21.82 26.1 21.81 26.1C21.49 26.1 21.23 25.85 21.22 25.52C21.14 22 20.81 17.26 19.7 14.63C19.14 13.31 17.85 12.46 16.41 12.46C15.94 12.46 15.48 12.55 15.04 12.73C13.31 13.45 12.47 15.43 13.1 17.33C13.64 18.99 13.98 26.87 13.98 33.22C13.98 33.55 13.72 33.81 13.39 33.81C13.06 33.81 12.79 33.55 12.79 33.22C12.79 26.16 12.41 19.05 11.97 17.7C11.14 15.21 12.27 12.6 14.58 11.64C15.17 11.39 15.78 11.27 16.41 11.27C18.33 11.27 20.05 12.41 20.79 14.17Z" />
			</g>
		</g>
	</g>
</svg>