<svg version="1.2" baseProfile="tiny-ps" xmlns="http://www.w3.org/2000/svg" viewBox="0 0 33 35" width="33" height="35">
	<title>Core Features</title>
	<style>
		tspan { white-space:pre }
		.shp0 { fill: #00cff1 } 
	</style>
	<g id="Core Features">
		<g id="Text">
			<g id="Excellent Support">
				<path id="Forma 1" class="shp0" d="M17.29 22.17C16.74 22.17 16.21 21.95 15.82 21.56C15.39 21.13 15.17 20.53 15.21 19.93C15.26 19.32 15.57 18.76 16.07 18.41L23.64 12.94C23.87 12.78 24.19 12.8 24.4 13C24.6 13.21 24.63 13.53 24.46 13.76L18.98 21.31C18.62 21.8 18.06 22.11 17.45 22.16C17.4 22.16 17.35 22.17 17.29 22.17ZM16.38 20.02C16.4 19.75 16.54 19.51 16.75 19.35L21.37 16.02L18.03 20.62C17.87 20.84 17.63 20.98 17.36 21C17.1 21.01 16.84 20.92 16.65 20.73C16.46 20.54 16.36 20.28 16.38 20.02ZM32.67 19.25C32.67 22.1 31.9 24.78 30.56 27.09C30.55 27.1 30.56 27.11 30.55 27.12C30.54 27.14 30.52 27.15 30.51 27.17C29.13 29.52 27.16 31.49 24.79 32.86C24.78 32.87 24.78 32.88 24.77 32.89C24.75 32.9 24.73 32.9 24.71 32.91C22.43 34.22 19.79 34.98 16.98 35C16.97 35 16.97 35 16.96 35C16.96 35 16.96 35 16.95 35C16.92 35 16.9 35 16.87 35C15.68 35 14.49 34.86 13.32 34.6C13.01 34.52 12.81 34.21 12.88 33.9C12.96 33.58 13.27 33.38 13.58 33.46C14.51 33.67 15.44 33.79 16.38 33.82L16.38 32.67C16.38 32.34 16.64 32.08 16.96 32.08C17.29 32.08 17.55 32.34 17.55 32.67L17.55 33.81C19.75 33.71 21.82 33.12 23.67 32.15L23.09 31.16C22.93 30.88 23.02 30.52 23.3 30.36C23.58 30.2 23.94 30.3 24.1 30.58L24.68 31.57C26.51 30.41 28.06 28.86 29.23 27.03L28.23 26.46C27.95 26.3 27.85 25.94 28.02 25.67C28.18 25.38 28.53 25.29 28.81 25.45L29.81 26.03C30.8 24.16 31.39 22.06 31.48 19.83L30.32 19.83C30 19.83 29.74 19.57 29.74 19.25C29.74 18.93 30 18.67 30.32 18.67L31.48 18.67C31.39 16.44 30.8 14.34 29.81 12.47L28.81 13.05C28.72 13.1 28.62 13.12 28.52 13.12C28.32 13.12 28.12 13.02 28.02 12.83C27.85 12.55 27.95 12.2 28.23 12.04L29.22 11.46C28.06 9.64 26.51 8.09 24.68 6.93L24.1 7.92C23.99 8.11 23.8 8.21 23.59 8.21C23.5 8.21 23.39 8.19 23.3 8.14C23.02 7.98 22.93 7.62 23.09 7.34L23.67 6.34C21.82 5.37 19.75 4.78 17.55 4.68L17.55 5.83C17.55 6.16 17.29 6.42 16.96 6.42C16.64 6.42 16.38 6.16 16.38 5.83L16.38 4.68C16.21 4.69 16.03 4.7 15.84 4.71L15.21 4.76C14.66 4.82 14.12 4.92 13.58 5.04C13.27 5.11 12.95 4.92 12.88 4.6C12.81 4.29 13.01 3.97 13.32 3.9C13.94 3.76 14.58 3.66 15.21 3.59L15.21 2.92L14.33 2.92C13.52 2.92 12.87 2.26 12.87 1.46C12.87 0.65 13.52 0 14.33 0L19.6 0C20.4 0 21.06 0.65 21.06 1.46C21.06 2.26 20.4 2.92 19.6 2.92L18.72 2.92L18.72 3.61C20.89 3.86 22.92 4.56 24.73 5.6C24.74 5.6 24.75 5.6 24.77 5.61C24.78 5.62 24.79 5.63 24.8 5.63C25.81 6.22 26.75 6.92 27.61 7.72L28.87 6.46L28.04 5.64L30.52 3.16L33 5.64L30.52 8.11L29.69 7.29L28.44 8.54C29.23 9.39 29.93 10.33 30.52 11.35C30.53 11.36 30.54 11.36 30.55 11.37C30.56 11.39 30.56 11.4 30.56 11.41C31.9 13.72 32.67 16.4 32.67 19.25ZM30.52 4.81L31.35 5.64L30.52 6.46L29.69 5.64L30.52 4.81ZM16.38 3.51L16.38 1.75L14.33 1.75C14.17 1.75 14.04 1.62 14.04 1.46C14.04 1.3 14.17 1.17 14.33 1.17L19.6 1.17C19.76 1.17 19.89 1.3 19.89 1.46C19.89 1.62 19.76 1.75 19.6 1.75L17.55 1.75L17.55 3.51C17.34 3.5 17.15 3.5 16.96 3.5C16.95 3.5 16.93 3.5 16.91 3.5C16.9 3.5 16.88 3.5 16.87 3.5C16.77 3.5 16.68 3.51 16.58 3.51C16.51 3.51 16.45 3.51 16.38 3.51ZM12.28 8.75C12.28 9.07 12.02 9.33 11.7 9.33L8.77 9.33C8.45 9.33 8.19 9.07 8.19 8.75C8.19 8.43 8.45 8.17 8.77 8.17L11.7 8.17C12.02 8.17 12.28 8.43 12.28 8.75ZM12.28 12.83C12.28 13.16 12.02 13.42 11.7 13.42L5.85 13.42C5.52 13.42 5.26 13.16 5.26 12.83C5.26 12.51 5.52 12.25 5.85 12.25L11.7 12.25C12.02 12.25 12.28 12.51 12.28 12.83ZM12.28 16.92C12.28 17.24 12.02 17.5 11.7 17.5L2.92 17.5C2.6 17.5 2.34 17.24 2.34 16.92C2.34 16.59 2.6 16.33 2.92 16.33L11.7 16.33C12.02 16.33 12.28 16.59 12.28 16.92ZM12.28 21C12.28 21.32 12.02 21.58 11.7 21.58L0.58 21.58C0.26 21.58 -0.01 21.32 -0.01 21C-0.01 20.68 0.26 20.42 0.58 20.42L11.7 20.42C12.02 20.42 12.28 20.68 12.28 21ZM12.28 25.08C12.28 25.41 12.02 25.67 11.7 25.67L4.09 25.67C3.77 25.67 3.51 25.41 3.51 25.08C3.51 24.76 3.77 24.5 4.09 24.5L11.7 24.5C12.02 24.5 12.28 24.76 12.28 25.08ZM12.28 29.17C12.28 29.49 12.02 29.75 11.7 29.75L7.6 29.75C7.28 29.75 7.02 29.49 7.02 29.17C7.02 28.84 7.28 28.58 7.6 28.58L11.7 28.58C12.02 28.58 12.28 28.84 12.28 29.17Z" />
			</g>
		</g>
	</g>
</svg>