<svg version="1.2" baseProfile="tiny-ps" xmlns="http://www.w3.org/2000/svg" viewBox="0 0 72 60" width="72" height="60">
	<title>Achievement</title>
	<style>
		tspan { white-space:pre }
		.shp0 { fill: #ffffff } 
	</style>
	<g id="Achievement">
		<g id="App Download">
			<path id="Icon" class="shp0" d="M72 32.91C72 40.71 65.52 47.06 57.57 47.06L52.8 47.06C52.14 47.06 51.6 46.53 51.6 45.88C51.6 45.23 52.14 44.71 52.8 44.71L57.57 44.71C64.2 44.71 69.6 39.41 69.6 32.91C69.6 27.25 65.39 22.2 59.8 21.16C59.64 21.14 56.85 20.77 54.18 21.16C54.12 21.17 54.06 21.18 54 21.18C53.42 21.18 52.9 20.76 52.81 20.18C52.71 19.53 53.16 18.94 53.82 18.84C55.66 18.56 57.49 18.61 58.72 18.69C57.91 9.57 50.19 2.35 40.9 2.35C35.27 2.35 29.6 5.15 26.16 9.56C28.5 11.51 30 14.41 30 17.65C30 18.3 29.46 18.82 28.8 18.82C28.14 18.82 27.6 18.3 27.6 17.65C27.6 14.75 26.06 12.2 23.75 10.73C23.48 10.56 23.2 10.41 22.91 10.27C22.82 10.23 22.74 10.19 22.66 10.15C22.33 10 22 9.87 21.65 9.77C21.61 9.76 21.57 9.75 21.53 9.74C21.22 9.65 20.9 9.58 20.58 9.53C20.49 9.52 20.39 9.5 20.3 9.49C19.94 9.44 19.57 9.41 19.2 9.41C14.57 9.41 10.8 13.11 10.8 17.65C10.8 17.75 10.81 17.85 10.82 17.95L10.83 18.18L10.82 18.39C10.81 18.54 10.8 18.68 10.8 18.82L10.8 19.56L10.12 19.88C5.65 21.99 2.4 27.06 2.4 31.95C2.4 38.98 8.24 44.71 15.41 44.71L21.6 44.71C22.26 44.71 22.8 45.23 22.8 45.88C22.8 46.53 22.26 47.06 21.6 47.06L15.41 47.06C6.91 47.06 0 40.28 0 31.95C0 26.35 3.43 20.76 8.42 18.09C8.41 17.95 8.4 17.8 8.4 17.65C8.4 11.81 13.24 7.06 19.2 7.06C19.61 7.06 20.01 7.09 20.41 7.13C20.53 7.14 20.65 7.17 20.77 7.18C21.05 7.22 21.33 7.27 21.6 7.33C21.74 7.36 21.87 7.4 22.01 7.43C22.26 7.5 22.51 7.58 22.75 7.66C22.89 7.71 23.03 7.75 23.17 7.81C23.41 7.9 23.65 8.01 23.89 8.12C23.98 8.17 24.08 8.2 24.17 8.24C28.08 3.13 34.38 0 40.9 0C51.63 0 60.54 8.46 61.17 19.05C67.41 20.66 72 26.45 72 32.91ZM47.65 48.58C48.12 49.04 48.12 49.78 47.65 50.24L38.05 59.65C37.94 59.76 37.81 59.85 37.66 59.91C37.51 59.97 37.36 60 37.2 60C37.04 60 36.89 59.97 36.74 59.91C36.59 59.85 36.46 59.76 36.35 59.65L26.75 50.24C26.28 49.78 26.28 49.04 26.75 48.58C27.22 48.12 27.98 48.12 28.45 48.58L36 55.98L36 31.76C36 31.11 36.54 30.59 37.2 30.59C37.86 30.59 38.4 31.11 38.4 31.76L38.4 55.98L45.95 48.58C46.42 48.12 47.18 48.12 47.65 48.58Z" />
		</g>
	</g>
</svg>