<svg version="1.2" baseProfile="tiny-ps" xmlns="http://www.w3.org/2000/svg" viewBox="0 0 64 60" width="64" height="60">
	<title>Achievement</title>
	<style>
		tspan { white-space:pre }
		.shp0 { fill: #ffffff } 
	</style>
	<g id="Achievement">
		<g id="Happy Users">
			<path id="Icon" class="shp0" d="M63.36 24.69C62.03 30.36 58.97 35.51 54.49 39.6L31.81 60.01L9.5 39.6C5.03 35.51 1.96 30.36 0.64 24.69C-0.28 20.75 0.02 18.34 0.09 17.88C1.03 7.51 8.31 -0.01 17.42 -0.01C23.39 -0.01 28.72 3.22 31.82 8.56C34.95 3.28 40.51 -0.01 46.58 -0.01C55.69 -0.01 62.97 7.52 63.9 17.89C63.98 18.34 64.28 20.76 63.36 24.69ZM60.96 24.12C59.75 29.3 56.94 34.01 52.85 37.75L31.82 56.67L11.16 37.76C7.05 34.01 4.25 29.29 3.03 24.12C2.16 20.4 2.52 18.29 2.52 18.28L2.54 18.15C3.34 9.07 9.6 2.47 17.42 2.47C23.19 2.47 28.27 6.05 30.68 11.8L31.82 14.51L32.95 11.8C35.32 6.14 40.67 2.47 46.58 2.47C54.4 2.47 60.66 9.07 61.47 18.27C61.47 18.29 61.83 20.4 60.96 24.12Z" />
		</g>
	</g>
</svg>