<svg version="1.2" baseProfile="tiny-ps" xmlns="http://www.w3.org/2000/svg" viewBox="0 0 52 60" width="52" height="60">
	<title>Achievement</title>
	<style>
		tspan { white-space:pre }
		.shp0 { fill: #ffffff } 
	</style>
	<g id="Achievement">
		<g id="Awards">
			<path id="Forma 1" class="shp0" d="M52 26.38L40.33 26.38L40.33 60L20.16 46.63L0 60L0 6.43C0 2.88 2.9 0 6.46 0L45.63 0L45.63 0.01C49.15 0.09 52 2.97 52 6.48L52 26.38ZM38.2 56.06L20.16 44.1L2.12 56.06L2.12 6.43C2.12 4.05 4.07 2.11 6.46 2.11L40.44 2.11C39.4 3.13 38.65 4.45 38.35 5.92L38.35 5.92C38.3 6.16 38.27 6.4 38.24 6.64C38.22 6.88 38.2 7.13 38.2 7.39L38.2 26.38L38.2 56.06ZM49.88 24.27L40.33 24.27L40.33 7.39C40.33 7.03 40.36 6.68 40.43 6.34C40.84 4.35 42.4 2.75 44.39 2.27C44.43 2.26 44.46 2.25 44.5 2.24C44.76 2.18 45.03 2.16 45.3 2.15C45.39 2.14 45.47 2.12 45.56 2.12C47.94 2.16 49.88 4.1 49.88 6.48L49.88 24.27Z" />
		</g>
	</g>
</svg>