<svg version="1.2" baseProfile="tiny-ps" xmlns="http://www.w3.org/2000/svg" viewBox="0 0 66 60" width="66" height="60">
	<title>Achievement</title>
	<style>
		tspan { white-space:pre }
		.shp0 { fill: #ffffff } 
	</style>
	<g id="Achievement">
		<g id="Active Users">
			<path id="Icon" class="shp0" d="M66 55.59L66 60L17.6 60L15.4 60L0 60L0 55.86C0 52.69 1.74 49.78 4.54 48.27L11.86 43.71C12.68 43.27 13.15 42.48 13.15 41.62L13.15 38.63C12.28 37.73 10.05 35.17 9.14 31.78C8.23 31.03 7.7 29.94 7.7 28.76L7.7 24.99C7.7 24.11 8.09 23.22 8.8 22.45L8.8 17.45C8.81 17.3 9.47 7.64 20.9 7.64C23.42 7.64 25.65 8.13 27.53 9.09C27.69 7.65 28.22 5.64 29.8 3.85C32.06 1.3 35.73 0 40.7 0C45.67 0 49.34 1.3 51.6 3.85C54.2 6.8 53.96 10.37 53.9 10.97L53.9 16.77C54.6 17.57 55 18.59 55 19.64L55 24C55 25.72 53.99 27.24 52.44 27.95C51.65 30.24 50.55 32.36 49.19 34.27C48.92 34.66 48.65 35 48.4 35.31L48.4 39C48.4 40.1 49.02 41.09 50.01 41.58L60.52 46.79C63.9 48.47 66 51.84 66 55.59ZM15.4 55.38L15.4 57.82L2.2 57.82L2.2 55.86C2.2 53.49 3.5 51.31 5.66 50.15L12.97 45.6C14.44 44.8 15.35 43.28 15.35 41.62L15.35 37.71L15 37.38C14.97 37.36 12.05 34.62 11.18 30.89L11.08 30.45L10.71 30.21C10.2 29.89 9.9 29.34 9.9 28.76L9.9 24.99C9.9 24.6 10.17 24.13 10.64 23.71L11 23.39L11 17.52C11.02 17.2 11.59 9.82 20.9 9.82C23.53 9.82 25.75 10.42 27.5 11.61L27.5 16.77C26.8 17.57 26.4 18.59 26.4 19.64L26.4 24C26.4 24.33 26.44 24.66 26.51 24.97C26.54 25.1 26.6 25.22 26.64 25.34C26.7 25.52 26.75 25.71 26.83 25.88C26.84 25.89 26.84 25.89 26.84 25.89C27.12 26.47 27.53 26.98 28.05 27.39C28.05 27.41 28.06 27.43 28.06 27.45C28.13 27.7 28.2 27.95 28.27 28.19L28.36 28.48C28.38 28.53 28.4 28.58 28.41 28.63C28.45 28.75 28.49 28.86 28.53 28.98C28.6 29.17 28.66 29.37 28.75 29.58C28.78 29.67 28.82 29.75 28.85 29.84C28.94 30.07 29.03 30.29 29.13 30.51C29.15 30.56 29.17 30.62 29.19 30.67L29.25 30.8C29.28 30.87 29.31 30.92 29.34 30.99C29.45 31.22 29.55 31.45 29.66 31.66C29.68 31.7 29.7 31.74 29.72 31.77C29.79 31.91 29.86 32.04 29.92 32.17C30.04 32.39 30.16 32.6 30.28 32.81C30.33 32.91 30.39 33.01 30.45 33.1C30.6 33.37 30.75 33.62 30.9 33.85C30.93 33.9 30.96 33.95 30.99 33.99C31.26 34.4 31.49 34.73 31.68 34.99C31.73 35.06 31.78 35.12 31.82 35.18C31.84 35.21 31.88 35.26 31.9 35.29L31.9 38.89C31.9 39.95 31.32 40.92 30.38 41.43L27.47 43L26.97 42.96L26.76 43.39L20.57 46.73C17.38 48.46 15.4 51.77 15.4 55.38ZM63.8 57.82L17.6 57.82L17.6 55.38C17.6 52.57 19.14 49.99 21.62 48.65L31.44 43.34C33.08 42.45 34.1 40.75 34.1 38.9L34.1 34.51L34.1 34.51L33.89 34.26L33.84 34.21C33.84 34.21 33.77 34.12 33.66 33.98C33.66 33.97 33.65 33.96 33.64 33.95C33.58 33.88 33.52 33.79 33.44 33.68C33.44 33.68 33.44 33.68 33.43 33.67C33.27 33.45 33.06 33.16 32.84 32.8C32.83 32.79 32.83 32.79 32.82 32.78C32.71 32.61 32.6 32.43 32.48 32.24C32.47 32.22 32.46 32.21 32.46 32.19C32.21 31.78 31.94 31.31 31.68 30.79C31.68 30.79 31.68 30.79 31.68 30.79C31.54 30.51 31.4 30.22 31.26 29.92L31.26 29.92C31.24 29.87 31.22 29.83 31.21 29.79L31.21 29.79C31.15 29.65 31.08 29.51 31.02 29.36C31 29.31 30.98 29.25 30.96 29.2C30.9 29.06 30.84 28.91 30.78 28.75C30.67 28.45 30.56 28.14 30.46 27.82L30.4 27.63C30.39 27.6 30.39 27.58 30.38 27.56C30.28 27.22 30.18 26.86 30.09 26.5L29.99 26.07L29.62 25.83C28.98 25.42 28.6 24.74 28.6 24L28.6 19.64C28.6 19.02 28.86 18.45 29.34 18.03L29.7 17.7L29.7 10.91L29.7 10.52L29.67 10.5C29.63 9.71 29.68 7.3 31.46 5.29C33.28 3.23 36.39 2.18 40.7 2.18C45 2.18 48.1 3.22 49.92 5.27C52.07 7.67 51.71 10.74 51.71 10.77L51.7 17.7L52.06 18.03C52.54 18.45 52.8 19.02 52.8 19.64L52.8 24C52.8 24.95 52.17 25.79 51.24 26.07L50.69 26.24L50.51 26.78C49.78 29.05 48.73 31.14 47.39 33.01C47.07 33.47 46.75 33.88 46.47 34.19L46.2 34.5L46.2 39C46.2 40.93 47.28 42.66 49.02 43.53L59.53 48.74C62.16 50.04 63.8 52.67 63.8 55.59L63.8 57.82Z" />
		</g>
	</g>
</svg>